<svg width="94" height="94" viewBox="0 0 94 94" fill="none" xmlns="http://www.w3.org/2000/svg">
<g clip-path="url(#clip0)">
<path d="M47.0028 7.36084C25.1095 7.36084 7.36404 25.1063 7.36404 46.9999C7.36404 62.7746 16.6025 76.3548 29.9418 82.7347L31.1825 58.7612C31.1825 58.7612 28.8488 57.9953 28.3379 57.746C23.3881 55.5656 19.7922 49.1457 19.7922 40.8136C19.7922 31.7215 26.8435 23.8901 33.6606 23.8254C33.6693 23.8254 33.6693 23.8254 33.6749 23.8254C33.6779 23.8254 33.6836 23.8254 33.6863 23.8254C40.5049 23.8898 47.5564 31.7212 47.5564 40.8136C47.5564 49.1457 43.9561 55.5629 39.0164 57.746C38.9776 57.763 36.1491 58.7901 36.1491 58.7901L37.5347 85.4457C40.5753 86.194 43.7366 86.6333 47.0083 86.6333C51.4204 86.6333 55.6458 85.8817 59.6103 84.5534L60.8381 60.7981C57.6025 60.0866 54.8427 58.0267 53.1129 55.4424C50.97 52.2324 54.7624 23.8226 54.7624 23.8226H57.2294V50.4824H59.6794V23.8256H62.3588V50.4883H64.7972V23.8256H67.577V50.4883H70.0238V23.8256H71.917C71.917 23.8256 75.7094 52.2354 73.5638 55.4453C71.8511 58.0042 69.1172 60.0582 65.9218 60.7868C65.8645 60.807 65.8127 60.8268 65.8127 60.8268L66.8798 81.2605C78.6873 74.3957 86.6448 61.6418 86.6448 47.0001C86.6389 25.1065 68.8935 7.36084 47.0028 7.36084Z" fill="black"/>
<path d="M25.5941 36.7832C25.7361 36.2052 25.927 35.6558 25.9356 35.6459C25.9973 35.4294 25.8825 35.2084 25.6472 35.0679C25.4235 34.9475 25.151 35.0092 25.0248 35.2027C25.0248 35.2027 24.7537 35.6346 24.3606 36.2728C24.0409 36.8222 23.5676 37.6999 23.2446 38.7929C22.9649 39.7509 22.6309 41.0246 22.4802 42.4502C22.4158 43.1991 22.4012 43.8746 22.4242 44.5701C22.4802 45.3632 22.6005 46.0417 22.8301 46.8177C23.6088 49.0309 24.2085 51.174 26.3729 53.2879C27.057 53.9908 27.7599 54.4698 28.2676 54.8227L28.4468 54.9488C28.556 55.0207 28.6606 55.0868 28.7638 55.1471C29.19 55.3708 29.4752 55.451 29.527 55.4624C29.7391 55.5197 29.9574 55.4164 30.0475 55.2444C30.1322 55.0636 30.0704 54.837 29.8942 54.6938C29.8942 54.6938 29.6473 54.4787 29.3305 54.077C29.1139 53.8331 28.8787 53.4803 28.6048 53.0818C28.4113 52.8005 28.1831 52.482 27.9708 52.1722C26.9165 50.5629 26.3087 48.3168 25.468 46.016C25.303 45.5167 25.1682 44.8699 25.1179 44.3205C25.0507 43.6865 25.0191 43.0756 25.0191 42.509C24.9947 41.1923 25.0534 40.062 25.1682 39.1455C25.3001 38.1115 25.4033 37.3355 25.5941 36.7832Z" fill="black"/>
<path d="M47.0028 0C21.089 0 0 21.0845 0 46.9999C0 72.9096 21.089 94 47.0028 94C72.9155 94 94.0002 72.9096 94.0002 46.9999C94 21.0845 72.9155 0 47.0028 0ZM47.0028 90.4945C23.018 90.4945 3.504 70.982 3.504 46.9999C3.504 23.015 23.018 3.50104 47.0028 3.50104C70.985 3.50104 90.5004 23.015 90.5004 46.9999C90.5002 70.982 70.9847 90.4945 47.0028 90.4945Z" fill="black"/>
</g>
<defs>
<clipPath id="clip0">
<rect width="94" height="94" fill="white"/>
</clipPath>
</defs>
</svg>
